<svg width="24" height="24" viewBox="0 0 24 24" fill="none" xmlns="http://www.w3.org/2000/svg">
<rect width="24" height="24" fill="#E5E5E5"/>
<g id="Chat_Dashboard" clip-path="url(#clip0_0_1)">
<rect width="1920" height="1080" transform="translate(-1791 -153)" fill="white"/>
<rect id="Background" x="-1791" y="-153" width="1920" height="1080" fill="white"/>
<rect id="Background_2" x="-1501" y="-153" width="1630" height="1080" fill="url(#paint0_linear_0_1)"/>
<g id="Chat">
<g id="Backgr">
<g id="Rectangle" filter="url(#filter0_ddd_0_1)">
<rect x="-754" y="-32" width="810" height="908" rx="6" fill="#DADADA"/>
</g>
<rect id="Rectangle 3" x="-774" y="-43" width="850" height="930" fill="white"/>
</g>
<g id="User info">
<path id="Backgr_" d="M-774 -37C-774 -40.3137 -771.314 -43 -768 -43H70C73.3137 -43 76 -40.3137 76 -37V67H-774V-37Z" fill="#FAFBFF"/>
<g id="Icon More">
<g id="Ellipse" filter="url(#filter1_ddd_0_1)">
<circle cx="12" cy="12" r="26" fill="white"/>
</g>
<g id="Icon/Outline/more-vertical">
<path id="Mask" fill-rule="evenodd" clip-rule="evenodd" d="M12 7C13.104 7 14 6.104 14 5C14 3.896 13.104 3 12 3C10.896 3 10 3.896 10 5C10 6.104 10.896 7 12 7ZM12 10C10.896 10 10 10.896 10 12C10 13.104 10.896 14 12 14C13.104 14 14 13.104 14 12C14 10.896 13.104 10 12 10ZM10 19C10 17.896 10.896 17 12 17C13.104 17 14 17.896 14 19C14 20.104 13.104 21 12 21C10.896 21 10 20.104 10 19Z" fill="#231F20"/>
<mask id="mask0_0_1" style="mask-type:alpha" maskUnits="userSpaceOnUse" x="10" y="3" width="4" height="18">
<path id="Mask_2" fill-rule="evenodd" clip-rule="evenodd" d="M12 7C13.104 7 14 6.104 14 5C14 3.896 13.104 3 12 3C10.896 3 10 3.896 10 5C10 6.104 10.896 7 12 7ZM12 10C10.896 10 10 10.896 10 12C10 13.104 10.896 14 12 14C13.104 14 14 13.104 14 12C14 10.896 13.104 10 12 10ZM10 19C10 17.896 10.896 17 12 17C13.104 17 14 17.896 14 19C14 20.104 13.104 21 12 21C10.896 21 10 20.104 10 19Z" fill="white"/>
</mask>
<g mask="url(#mask0_0_1)">
<g id="&#240;&#159;&#142;&#168; Color">
<rect id="Base" width="24" height="24" fill="#707C97"/>
</g>
</g>
</g>
</g>
</g>
</g>
</g>
<defs>
<filter id="filter0_ddd_0_1" x="-809" y="-77" width="920" height="1018" filterUnits="userSpaceOnUse" color-interpolation-filters="sRGB">
<feFlood flood-opacity="0" result="BackgroundImageFix"/>
<feColorMatrix in="SourceAlpha" type="matrix" values="0 0 0 0 0 0 0 0 0 0 0 0 0 0 0 0 0 0 127 0" result="hardAlpha"/>
<feOffset dy="10"/>
<feGaussianBlur stdDeviation="12.5"/>
<feColorMatrix type="matrix" values="0 0 0 0 0 0 0 0 0 0 0 0 0 0 0 0 0 0 0.05 0"/>
<feBlend mode="normal" in2="BackgroundImageFix" result="effect1_dropShadow_0_1"/>
<feColorMatrix in="SourceAlpha" type="matrix" values="0 0 0 0 0 0 0 0 0 0 0 0 0 0 0 0 0 0 127 0" result="hardAlpha"/>
<feOffset dy="4"/>
<feGaussianBlur stdDeviation="5"/>
<feColorMatrix type="matrix" values="0 0 0 0 0 0 0 0 0 0 0 0 0 0 0 0 0 0 0.25 0"/>
<feBlend mode="normal" in2="effect1_dropShadow_0_1" result="effect2_dropShadow_0_1"/>
<feColorMatrix in="SourceAlpha" type="matrix" values="0 0 0 0 0 0 0 0 0 0 0 0 0 0 0 0 0 0 127 0" result="hardAlpha"/>
<feOffset dy="10"/>
<feGaussianBlur stdDeviation="27.5"/>
<feColorMatrix type="matrix" values="0 0 0 0 0 0 0 0 0 0 0 0 0 0 0 0 0 0 0.05 0"/>
<feBlend mode="normal" in2="effect2_dropShadow_0_1" result="effect3_dropShadow_0_1"/>
<feBlend mode="normal" in="SourceGraphic" in2="effect3_dropShadow_0_1" result="shape"/>
</filter>
<filter id="filter1_ddd_0_1" x="-39" y="-34" width="102" height="104" filterUnits="userSpaceOnUse" color-interpolation-filters="sRGB">
<feFlood flood-opacity="0" result="BackgroundImageFix"/>
<feColorMatrix in="SourceAlpha" type="matrix" values="0 0 0 0 0 0 0 0 0 0 0 0 0 0 0 0 0 0 127 0" result="hardAlpha"/>
<feOffset dy="5"/>
<feGaussianBlur stdDeviation="12.5"/>
<feColorMatrix type="matrix" values="0 0 0 0 0.164706 0 0 0 0 0.545098 0 0 0 0 0.94902 0 0 0 0.07 0"/>
<feBlend mode="normal" in2="BackgroundImageFix" result="effect1_dropShadow_0_1"/>
<feColorMatrix in="SourceAlpha" type="matrix" values="0 0 0 0 0 0 0 0 0 0 0 0 0 0 0 0 0 0 127 0" result="hardAlpha"/>
<feOffset dy="7"/>
<feGaussianBlur stdDeviation="12.5"/>
<feColorMatrix type="matrix" values="0 0 0 0 0.164706 0 0 0 0 0.545098 0 0 0 0 0.94902 0 0 0 0.03 0"/>
<feBlend mode="normal" in2="effect1_dropShadow_0_1" result="effect2_dropShadow_0_1"/>
<feColorMatrix in="SourceAlpha" type="matrix" values="0 0 0 0 0 0 0 0 0 0 0 0 0 0 0 0 0 0 127 0" result="hardAlpha"/>
<feOffset dy="10"/>
<feGaussianBlur stdDeviation="7.5"/>
<feColorMatrix type="matrix" values="0 0 0 0 0 0 0 0 0 0 0 0 0 0 0 0 0 0 0.03 0"/>
<feBlend mode="normal" in2="effect2_dropShadow_0_1" result="effect3_dropShadow_0_1"/>
<feBlend mode="normal" in="SourceGraphic" in2="effect3_dropShadow_0_1" result="shape"/>
</filter>
<linearGradient id="paint0_linear_0_1" x1="-686" y1="-153" x2="-686" y2="927" gradientUnits="userSpaceOnUse">
<stop stop-color="#F3F3FB"/>
<stop offset="1" stop-color="#FDFBFD"/>
</linearGradient>
<clipPath id="clip0_0_1">
<rect width="1920" height="1080" fill="white" transform="translate(-1791 -153)"/>
</clipPath>
</defs>
</svg>
